<svg xmlns="http://www.w3.org/2000/svg" viewBox="0 0 24 24" fill="none" stroke="currentColor" stroke-width="2" stroke-linecap="round" stroke-linejoin="round">
  <rect width="24" height="24" fill="#f97316"/>
  <path d="M2 18a1 1 0 0 0 1 1h18a1 1 0 0 0 1-1v-2a1 1 0 0 0-1-1H3a1 1 0 0 0-1 1z" fill="#fff" stroke="#fff"/>
  <path d="M10 10 8.5 11l1.5 1 1.5-1 1.5 1 1.5-1 1.5 1 1.5-1-1.5-1z" fill="none" stroke="#fff"/>
  <path d="M4 15v-3a8 8 0 0 1 16 0v3" fill="none" stroke="#fff" stroke-width="2"/>
</svg>
